<!-- Generator: Adobe Illustrator 21.0.2, SVG Export Plug-In . SVG Version: 6.00 Build 0)  -->
				<svg version="1.1" id="Layer_1" xmlns="http://www.w3.org/2000/svg" xmlns:xlink="http://www.w3.org/1999/xlink" x="0px" y="0px"
				 viewBox="0 0 1000 1000" xml:space="preserve">
					<style type="text/css">
						.st0 {
							fill: none;
							stroke: white;
							stroke-width: 7;
							stroke-dasharray: 4000;
							stroke-dashoffset: 0;
							animation: dash 5s linear forwards;
							stroke-linecap: round;
							stroke-linejoin: round;
						}
				
						/* .background {
							fill: white;
						}
				
						.foreground {
							/* animation: fillColor 4.5s linear forwards;
							fill: lightcoral;
						}*/
				
						@keyframes fillColor {
							0% {
								fill: none;
							}
							80% {
								fill: white;
							}
							100% {
								fill: lightblue;
							}
						}
				
						@keyframes dash {
							0% {
								stroke-dashoffset: 4000;
							}
							100% {
								stroke-dashoffset: 0;
							}
						}
					</style>

					<circle class="st0 foreground" cx="500" cy="504" r="485" />
					<g>
						<path class="st0 background" d="M195.8,719.8V284.6V284l554.3,398V311.6V311l104.6-74.6l0.1-0.8C773.3,128.2,644.3,58.8,499.1,58.8
						C252.7,58.8,53,258.5,53,504.9c0,95.7,30.1,184.4,81.4,257v0.6l0.1,0l61.3-43.3V719.8z" />
					</g>
					<path class="st0 background" d="M803,780V343.5v-0.6l81.8-60.1l0.6-0.5c38,65.6,59.7,141.9,59.7,223.2c0,246.4-199.7,446.1-446.1,446.1
						c-133.3,0-252.9-58.4-334.6-151.1l0.1,0.5l85.4-58.9v0.6V383.2v-0.6L803,779.4V780z" />
					<g>
						<polyline class="st0 foreground" points="693.6,636.9 693.6,382 693.6,381.4 517.8,510.3 	" />
						<g>
							<polyline class="st0 background" points="639.5,597.2 639.5,483 639.5,482.4 559.8,540.4 		" />
						</g>
					</g>
					<polyline class="st0 foreground" points="516.2,576.5 437.5,633.9 356.9,576.1 356.9,576.7 356.9,668.1 356.9,667.5 302.8,706 302.8,706.6 
						302.8,475.7 302.8,475.1 438.7,572.5 474.3,546.4 " />
					<polyline class="st0 foreground" points="639.5,666.9 639.5,724.6 639.5,724 693.6,762.5 693.6,763.1 693.6,705.4 " />
				</svg>